<svg id="Capa_1" enable-background="new 0 0 512 512" height="512" viewBox="0 0 512 512" width="512" xmlns="http://www.w3.org/2000/svg"><g><g><path d="m255.995 87.198 39.158-47.047v-3.317c0-16.199-13.135-29.334-29.334-29.334h-19.637c-16.199 0-29.334 13.135-29.334 29.334v3.317z" fill="#544f57"/><path d="m236.947 40.152 29.103 34.966-10.061 12.078-39.142-47.043v-3.317c0-16.199 13.136-29.334 29.335-29.334h19.869c-16.089.121-29.103 13.213-29.103 29.334v3.316z" fill="#454045"/><path d="m339.877 119.694c0 11.564 4.729 22.683 13.247 30.504 28.597 26.256 46.525 63.948 46.525 105.83 0 79.68-64.874 144.208-144.684 143.646-78.971-.556-143.126-65.628-142.612-144.599.269-41.394 18.05-78.628 46.303-104.676 8.578-7.908 13.466-19.034 13.466-30.701l83.878-32.501z" fill="#f9ef63"/><path d="m300.262 392.731c-14.248 4.606-29.489 7.052-45.302 6.942-78.967-.551-143.124-65.622-142.606-144.59.264-41.401 18.05-78.637 46.294-104.676 8.584-7.912 13.466-19.042 13.466-30.701l83.882-32.508 44.167 17.113-63.971 15.395c0 11.659-4.893 22.789-13.466 30.701-28.254 26.04-46.04 63.275-46.305 104.676-.419 63.981 40.426 131.018 123.841 137.648z" fill="#f1d333"/><g fill="#f9ef63"><path d="m254.595 436.394h2.81c9.909 0 18.126 7.673 18.805 17.559l2.086 30.409c.747 10.892-7.887 20.139-18.805 20.139h-6.981c-10.918 0-19.552-9.247-18.805-20.139l2.086-30.409c.678-9.886 8.895-17.559 18.804-17.559z"/><path d="m344.98 412.928 2.433-1.405c8.582-4.955 19.534-2.418 25.065 5.804l17.011 25.292c6.093 9.059 3.239 21.384-6.216 26.843l-6.046 3.491c-9.455 5.459-21.556 1.768-26.354-8.038l-13.398-27.378c-4.356-8.901-1.076-19.654 7.505-24.609z"/><path d="m100.477 164.587-1.405 2.433c-4.955 8.582-15.708 11.861-24.609 7.506l-27.378-13.398c-9.806-4.799-13.497-16.9-8.038-26.354l3.491-6.046c5.459-9.455 17.784-12.309 26.843-6.216l25.292 17.011c8.222 5.529 10.758 16.482 5.804 25.064z"/><path d="m411.523 347.414 1.405-2.433c4.955-8.582 15.708-11.861 24.609-7.506l27.378 13.398c9.806 4.799 13.497 16.9 8.038 26.354l-3.491 6.046c-5.459 9.455-17.784 12.309-26.843 6.216l-25.292-17.011c-8.222-5.53-10.758-16.483-5.804-25.064z"/><path d="m75.606 254.595v2.81c0 9.909-7.673 18.126-17.559 18.805l-30.409 2.086c-10.891.746-20.138-7.888-20.138-18.805v-6.981c0-10.918 9.247-19.552 20.139-18.805l30.409 2.086c9.885.678 17.558 8.895 17.558 18.804z"/><path d="m436.394 257.405v-2.81c0-9.909 7.673-18.126 17.559-18.805l30.409-2.086c10.892-.747 20.139 7.887 20.139 18.805v6.981c0 10.918-9.247 19.552-20.139 18.805l-30.409-2.086c-9.886-.678-17.559-8.895-17.559-18.804z"/><path d="m99.072 344.98 1.405 2.433c4.955 8.582 2.418 19.534-5.804 25.065l-25.292 17.011c-9.059 6.093-21.384 3.239-26.843-6.216l-3.491-6.046c-5.459-9.455-1.768-21.556 8.038-26.354l27.378-13.398c8.901-4.356 19.654-1.076 24.609 7.505z"/><path d="m412.928 167.02-1.405-2.433c-4.955-8.582-2.418-19.534 5.804-25.065l25.292-17.011c9.059-6.093 21.384-3.239 26.843 6.216l3.491 6.046c5.459 9.455 1.768 21.556-8.038 26.354l-27.378 13.398c-8.901 4.356-19.654 1.076-24.609-7.505z"/><path d="m164.587 411.523 2.433 1.405c8.582 4.955 11.861 15.708 7.506 24.609l-13.398 27.378c-4.799 9.806-16.9 13.497-26.354 8.038l-6.046-3.491c-9.455-5.459-12.309-17.784-6.216-26.843l17.011-25.292c5.529-8.222 16.482-10.758 25.064-5.804z"/></g><path d="m339.874 90.332v29.368h-167.753v-29.368c0-27.902 22.623-50.525 50.525-50.525h66.702c27.903 0 50.526 22.623 50.526 50.525z" fill="#f1f1f4"/><path d="m286.583 39.813c-27.902 0-50.525 22.623-50.525 50.525v29.368h-63.936v-29.367c0-27.902 22.623-50.525 50.525-50.525h63.936z" fill="#dfeaef"/></g><g><path d="m283.691 453.44c-.943-13.765-12.49-24.546-26.286-24.546h-2.811c-13.796 0-25.343 10.782-26.286 24.546l-2.086 30.409c-.498 7.257 2.064 14.469 7.028 19.786 4.965 5.317 11.984 8.366 19.259 8.366h6.98c7.274 0 14.294-3.049 19.259-8.366 4.964-5.317 7.526-12.528 7.028-19.786zm-15.906 39.956c-2.17 2.324-5.115 3.604-8.295 3.604h-6.98c-3.18 0-6.125-1.28-8.295-3.604s-3.245-5.35-3.027-8.522l2.086-30.409c.406-5.929 5.379-10.572 11.321-10.572h2.811c5.942 0 10.915 4.644 11.321 10.572l2.086 30.409c.217 3.172-.858 6.199-3.028 8.522z"/><path d="m378.702 413.141c-7.7-11.447-23.09-15.011-35.04-8.112l-2.433 1.405h.001c-11.947 6.897-16.557 22.008-10.492 34.4l13.397 27.379c3.198 6.534 9.023 11.499 15.981 13.62 2.502.763 5.086 1.139 7.664 1.139 4.592 0 9.161-1.194 13.195-3.523l6.047-3.491c6.3-3.638 10.854-9.788 12.495-16.875s.254-14.613-3.806-20.648zm6.203 42.557c-.718 3.098-2.629 5.679-5.382 7.268l-6.047 3.491c-2.753 1.589-5.943 1.954-8.984 1.027s-5.485-3.011-6.884-5.866l-13.397-27.378c-2.611-5.338-.627-11.846 4.52-14.817h.001l2.432-1.404c1.772-1.023 3.72-1.512 5.647-1.512 3.671 0 7.271 1.773 9.444 5.006l17.011 25.292c1.774 2.637 2.356 5.796 1.639 8.893z"/><path d="m43.789 167.864 27.377 13.398c3.692 1.807 7.626 2.666 11.512 2.666 9.155 0 18.047-4.771 22.891-13.16l1.404-2.433c6.896-11.948 3.333-27.337-8.114-35.037l-25.292-17.011c-6.036-4.06-13.559-5.448-20.649-3.806-7.086 1.641-13.236 6.195-16.874 12.495l-3.491 6.047c-3.637 6.3-4.506 13.904-2.383 20.862 2.121 6.958 7.086 12.782 13.619 15.979zm1.753-29.341 3.491-6.046c1.59-2.753 4.171-4.665 7.269-5.382.864-.2 1.733-.299 2.596-.299 2.224 0 4.396.66 6.298 1.938l25.292 17.011c4.931 3.316 6.466 9.945 3.494 15.091 0 0 0 .001-.001.001l-1.403 2.432c-2.971 5.145-9.479 7.132-14.817 4.52l-27.377-13.398c-2.855-1.397-4.939-3.841-5.867-6.882-.929-3.042-.564-6.233 1.025-8.986z"/><path d="m468.211 344.136-27.377-13.398c-12.393-6.063-27.503-1.455-34.402 10.494l-1.404 2.433c-6.896 11.948-3.333 27.337 8.114 35.037l25.292 17.011c4.374 2.942 9.529 4.48 14.734 4.48 1.978 0 3.963-.222 5.915-.674 7.086-1.641 13.236-6.195 16.874-12.495l3.491-6.047c3.637-6.3 4.506-13.904 2.383-20.862-2.122-6.958-7.087-12.782-13.62-15.979zm-1.753 29.341-3.491 6.046c-1.59 2.753-4.171 4.665-7.269 5.382-3.092.717-6.254.136-8.894-1.639l-25.292-17.011c-4.931-3.316-6.466-9.945-3.494-15.091 0 0 0-.001.001-.001l1.403-2.432c2.086-3.613 5.915-5.667 9.859-5.667 1.673 0 3.368.37 4.958 1.148l27.377 13.398c2.855 1.397 4.939 3.841 5.867 6.882.929 3.041.564 6.232-1.025 8.985z"/><path d="m83.106 257.405v-2.81c0-13.796-10.781-25.343-24.545-26.287l-30.409-2.086c-7.28-.501-14.47 2.064-19.786 7.029s-8.366 11.984-8.366 19.258v6.981c0 7.274 3.05 14.294 8.366 19.258 4.881 4.558 11.357 7.09 18.001 7.09.594 0 1.189-.02 1.785-.061l30.409-2.086c13.764-.943 24.545-12.49 24.545-26.286zm-55.98 13.408c-3.18.217-6.198-.858-8.522-3.027-2.324-2.17-3.604-5.116-3.604-8.295v-6.981c0-3.179 1.279-6.125 3.604-8.295 2.127-1.986 4.843-3.055 7.72-3.055.266 0 .533.009.802.027l30.409 2.086c5.929.407 10.572 5.38 10.572 11.322v2.81c0 5.942-4.644 10.916-10.572 11.322z"/><path d="m503.634 233.251c-5.316-4.965-12.528-7.53-19.786-7.029l-30.409 2.086c-13.764.944-24.545 12.491-24.545 26.287v2.81c0 13.796 10.781 25.343 24.545 26.287l30.409 2.086c.597.041 1.191.061 1.785.061 6.644 0 13.121-2.533 18.001-7.09 5.316-4.964 8.366-11.984 8.366-19.258v-6.981c0-7.275-3.05-14.295-8.366-19.259zm-6.634 26.24c0 3.179-1.279 6.125-3.604 8.295-2.323 2.169-5.346 3.251-8.521 3.027l-30.409-2.086c-5.929-.407-10.572-5.38-10.572-11.322v-2.81c0-5.942 4.644-10.916 10.572-11.322l30.408-2.086c.27-.019.536-.027.803-.027 2.877 0 5.593 1.069 7.72 3.055 2.324 2.17 3.604 5.116 3.604 8.295v6.981z"/><path d="m105.568 341.231c-.001 0-.001-.001 0 0-6.897-11.948-22.009-16.558-34.402-10.493l-27.377 13.397c-6.533 3.197-11.498 9.021-13.62 15.979-2.123 6.958-1.254 14.562 2.383 20.863l3.491 6.045c3.638 6.3 9.788 10.854 16.874 12.495 1.952.452 3.937.674 5.915.674 5.204 0 10.361-1.539 14.734-4.48l25.292-17.01c11.448-7.7 15.012-23.09 8.114-35.037zm-15.081 25.024-25.292 17.011c-2.639 1.774-5.8 2.356-8.894 1.639-3.098-.717-5.679-2.628-7.269-5.382l-3.491-6.045c-1.589-2.754-1.954-5.945-1.026-8.986s3.012-5.485 5.867-6.882l27.377-13.397c1.59-.778 3.284-1.148 4.958-1.148 3.943 0 7.772 2.054 9.858 5.667l1.405 2.435c2.973 5.143 1.438 11.771-3.493 15.088z"/><path d="m406.432 170.769c.001 0 .001.001 0 0 4.844 8.39 13.733 13.16 22.891 13.16 3.885 0 7.82-.86 11.512-2.667l27.377-13.397c6.533-3.197 11.498-9.021 13.62-15.979 2.123-6.958 1.254-14.562-2.383-20.863l-3.491-6.045c-3.638-6.3-9.788-10.854-16.874-12.495-7.087-1.642-14.614-.254-20.649 3.806l-25.292 17.01c-11.448 7.7-15.012 23.09-8.114 35.037zm15.081-25.024 25.292-17.011c2.639-1.775 5.801-2.355 8.894-1.639 3.098.717 5.679 2.628 7.269 5.382l3.491 6.045c1.589 2.754 1.954 5.945 1.026 8.986s-3.012 5.485-5.867 6.882l-27.377 13.397c-5.336 2.612-11.846.627-14.816-4.518l-1.405-2.435c-2.973-5.144-1.438-11.772 3.493-15.089z"/><path d="m170.771 406.434-2.433-1.405c-.001 0-.001 0-.001 0-11.947-6.897-27.339-3.335-35.039 8.113l-17.011 25.292c-4.06 6.036-5.446 13.562-3.806 20.648 1.642 7.087 6.195 13.237 12.495 16.875l6.047 3.49c4.034 2.33 8.604 3.523 13.195 3.523 2.577 0 5.162-.376 7.664-1.139 6.958-2.122 12.783-7.086 15.981-13.621l13.397-27.378c6.066-12.391 1.457-27.501-10.489-34.398zm-2.982 27.806-13.397 27.377c-1.398 2.856-3.843 4.94-6.884 5.867-3.044.926-6.233.563-8.984-1.027l-6.047-3.49c-2.753-1.59-4.664-4.171-5.382-7.269-.717-3.097-.135-6.256 1.64-8.894l17.011-25.292c2.175-3.234 5.772-5.006 9.444-5.006 1.927 0 3.876.489 5.646 1.511l2.434 1.405c5.146 2.973 7.13 9.48 4.519 14.818z"/><path d="m144.263 357.548c1.479 1.626 3.511 2.452 5.549 2.452 1.802 0 3.608-.645 5.046-1.953 3.063-2.788 3.287-7.531.499-10.595-23.115-25.401-35.726-58.189-35.507-92.323.245-37.564 16.244-73.727 43.897-99.217 8.23-7.596 13.593-17.78 15.29-28.713h153.917c1.675 10.941 6.968 21.06 15.094 28.527 28.027 25.725 44.102 62.284 44.102 100.304 0 36.552-14.285 70.865-40.224 96.619-25.695 25.513-59.715 39.526-95.903 39.525-.332 0-.67-.001-1.003-.004-28.303-.192-55.437-9.096-78.466-25.748-3.354-2.427-8.045-1.673-10.473 1.683-2.427 3.356-1.673 8.045 1.684 10.472 25.573 18.491 55.711 28.378 87.15 28.592.372.002.742.004 1.113.004 40.169 0 77.941-15.558 106.467-43.88 28.796-28.591 44.654-66.685 44.654-107.264 0-42.21-17.845-82.797-48.955-111.352-6.873-6.316-10.815-15.424-10.815-24.988v-29.349c0-4.436-.502-8.858-1.492-13.147-.933-4.036-4.954-6.556-8.995-5.621-4.035.932-6.552 4.958-5.62 8.995.734 3.184 1.107 6.472 1.107 9.773v21.858h-152.759v-21.858c0-23.727 19.304-43.03 43.03-43.03h66.699c10.819 0 21.154 4.027 29.103 11.339 3.049 2.804 7.794 2.607 10.598-.442 2.805-3.048 2.606-7.793-.441-10.597-7.435-6.84-16.417-11.544-26.089-13.79-1.54-18.904-17.407-33.82-36.702-33.82h-19.637c-19.3 0-35.17 14.924-36.703 33.836-25.671 5.983-44.859 29.038-44.859 56.504v29.36c0 9.528-4.026 18.709-11.043 25.185-30.694 28.294-48.455 68.441-48.728 110.147-.241 37.913 13.756 74.32 39.415 102.516zm101.919-342.548h19.637c10.489 0 19.271 7.435 21.361 17.31h-62.358c2.089-9.875 10.871-17.31 21.36-17.31z"/></g></g></svg>