<svg height="512pt" viewBox="0 -51 512 512" width="512pt" xmlns="http://www.w3.org/2000/svg"><path d="m37.773438 282 163.832031-243.066406c26.003906-38.578125 82.785156-38.578125 108.789062 0l163.832031 243.066406zm0 0" fill="#f9f9f9"/><path d="m383.957031 400h-255.914062c-65.191407 0-118.042969-52.851562-118.042969-118.042969h492c0 65.191407-52.851562 118.042969-118.042969 118.042969zm0 0" fill="#b0e7f8"/><path d="m502 271.957031h-22.484375l-160.828125-238.609375c-14.074219-20.882812-37.507812-33.347656-62.6875-33.347656s-48.613281 12.464844-62.6875 33.347656l-160.828125 238.609375h-22.484375c-5.523438 0-10 4.476563-10 10 0 70.605469 57.4375 128.042969 128.042969 128.042969h255.914062c70.605469 0 128.042969-57.4375 128.042969-128.042969 0-5.523437-4.476562-10-10-10zm-118.042969 118.042969h-255.914062c-56.203125 0-102.523438-43.136719-107.582031-98.042969h198.035156c5.523437 0 10-4.476562 10-10 0-5.523437-4.476563-10-10-10h-161.894532l153.292969-227.433593c10.507813-15.585938 27.308594-24.523438 46.105469-24.523438s35.597656 8.9375 46.105469 24.523438l153.292969 227.433593h-156.898438c-5.523438 0-10 4.476563-10 10 0 5.523438 4.476562 10 10 10h193.039062c-5.058593 54.90625-51.378906 98.042969-107.582031 98.042969zm0 0"/><path d="m271 49.5c-2.628906 0-5.210938 1.070312-7.070312 2.929688-1.859376 1.859374-2.929688 4.441406-2.929688 7.070312s1.070312 5.210938 2.929688 7.070312c1.859374 1.859376 4.429687 2.929688 7.070312 2.929688 2.628906 0 5.210938-1.070312 7.070312-2.929688 1.859376-1.859374 2.929688-4.441406 2.929688-7.070312s-1.070312-5.210938-2.929688-7.070312c-1.859374-1.859376-4.441406-2.929688-7.070312-2.929688zm0 0"/><path d="m318 124c2.628906 0 5.210938-1.070312 7.070312-2.929688 1.859376-1.859374 2.929688-4.441406 2.929688-7.070312s-1.070312-5.210938-2.929688-7.070312c-1.859374-1.859376-4.441406-2.929688-7.070312-2.929688s-5.210938 1.070312-7.070312 2.929688c-1.859376 1.859374-2.929688 4.441406-2.929688 7.070312s1.070312 5.210938 2.929688 7.070312c1.859374 1.859376 4.441406 2.929688 7.070312 2.929688zm0 0"/><path d="m258.5 96.929688c-2.628906 0-5.210938 1.070312-7.070312 2.929687-1.859376 1.871094-2.929688 4.441406-2.929688 7.070313 0 2.640624 1.070312 5.210937 2.929688 7.070312 1.859374 1.871094 4.441406 2.929688 7.070312 2.929688s5.210938-1.058594 7.070312-2.929688c1.859376-1.859375 2.929688-4.441406 2.929688-7.070312 0-2.621094-1.070312-5.199219-2.929688-7.070313-1.859374-1.859375-4.441406-2.929687-7.070312-2.929687zm0 0"/><path d="m258.5 271.960938c-2.628906 0-5.210938 1.058593-7.070312 2.929687-1.859376 1.859375-2.929688 4.4375-2.929688 7.070313 0 2.628906 1.070312 5.199218 2.929688 7.070312 1.859374 1.859375 4.441406 2.929688 7.070312 2.929688s5.210938-1.070313 7.070312-2.929688c1.859376-1.871094 2.929688-4.441406 2.929688-7.070312 0-2.632813-1.070312-5.210938-2.929688-7.070313-1.859374-1.871094-4.441406-2.929687-7.070312-2.929687zm0 0"/></svg>